<mxfile host="app.diagrams.net" agent="Mozilla/5.0 (Macintosh; Intel Mac OS X 10_15_7) AppleWebKit/537.36 (KHTML, like Gecko) Chrome/134.0.0.0 Safari/537.36" version="26.0.16">
  <diagram name="Side-1" id="n2o4-PHBxmHbuySVQd2l">
    <mxGraphModel dx="1503" dy="929" grid="1" gridSize="10" guides="1" tooltips="1" connect="1" arrows="1" fold="1" page="1" pageScale="1" pageWidth="827" pageHeight="1169" math="0" shadow="0">
      <root>
        <mxCell id="0" />
        <mxCell id="1" parent="0" />
        <mxCell id="AFOqg2G25fw3THZPZ8JP-1" value="ProjectApp" style="swimlane;fontStyle=1;align=center;verticalAlign=top;childLayout=stackLayout;horizontal=1;startSize=26;horizontalStack=0;resizeParent=1;resizeParentMax=0;resizeLast=0;collapsible=1;marginBottom=0;whiteSpace=wrap;html=1;" vertex="1" parent="1">
          <mxGeometry x="14" y="542" width="320" height="106" as="geometry" />
        </mxCell>
        <mxCell id="AFOqg2G25fw3THZPZ8JP-3" value="" style="line;strokeWidth=1;fillColor=none;align=left;verticalAlign=middle;spacingTop=-1;spacingLeft=3;spacingRight=3;rotatable=0;labelPosition=right;points=[];portConstraint=eastwest;strokeColor=inherit;" vertex="1" parent="AFOqg2G25fw3THZPZ8JP-1">
          <mxGeometry y="26" width="320" height="8" as="geometry" />
        </mxCell>
        <mxCell id="AFOqg2G25fw3THZPZ8JP-4" value="addCoworker()&lt;div&gt;removeCoworker()&lt;/div&gt;&lt;div&gt;generateAndDisplayWorkReport()&lt;/div&gt;" style="text;strokeColor=none;fillColor=none;align=left;verticalAlign=top;spacingLeft=4;spacingRight=4;overflow=hidden;rotatable=0;points=[[0,0.5],[1,0.5]];portConstraint=eastwest;whiteSpace=wrap;html=1;" vertex="1" parent="AFOqg2G25fw3THZPZ8JP-1">
          <mxGeometry y="34" width="320" height="72" as="geometry" />
        </mxCell>
        <mxCell id="AFOqg2G25fw3THZPZ8JP-5" value="Project" style="swimlane;fontStyle=1;align=center;verticalAlign=top;childLayout=stackLayout;horizontal=1;startSize=26;horizontalStack=0;resizeParent=1;resizeParentMax=0;resizeLast=0;collapsible=1;marginBottom=0;whiteSpace=wrap;html=1;" vertex="1" parent="1">
          <mxGeometry x="360" y="300" width="200" height="256" as="geometry" />
        </mxCell>
        <mxCell id="AFOqg2G25fw3THZPZ8JP-6" value="startTime: Date&lt;div&gt;endTime: Date&lt;/div&gt;&lt;div&gt;name: String&lt;/div&gt;&lt;div&gt;projectNumber: int&lt;/div&gt;&lt;div&gt;projectLeader: Coworker?&lt;/div&gt;" style="text;strokeColor=none;fillColor=none;align=left;verticalAlign=top;spacingLeft=4;spacingRight=4;overflow=hidden;rotatable=0;points=[[0,0.5],[1,0.5]];portConstraint=eastwest;whiteSpace=wrap;html=1;" vertex="1" parent="AFOqg2G25fw3THZPZ8JP-5">
          <mxGeometry y="26" width="200" height="94" as="geometry" />
        </mxCell>
        <mxCell id="AFOqg2G25fw3THZPZ8JP-7" value="" style="line;strokeWidth=1;fillColor=none;align=left;verticalAlign=middle;spacingTop=-1;spacingLeft=3;spacingRight=3;rotatable=0;labelPosition=right;points=[];portConstraint=eastwest;strokeColor=inherit;" vertex="1" parent="AFOqg2G25fw3THZPZ8JP-5">
          <mxGeometry y="120" width="200" height="8" as="geometry" />
        </mxCell>
        <mxCell id="AFOqg2G25fw3THZPZ8JP-8" value="addActivity()&lt;div&gt;setProjectLeader()&lt;/div&gt;&lt;div&gt;generateAndDisplayProjectReport()&lt;/div&gt;" style="text;strokeColor=none;fillColor=none;align=left;verticalAlign=top;spacingLeft=4;spacingRight=4;overflow=hidden;rotatable=0;points=[[0,0.5],[1,0.5]];portConstraint=eastwest;whiteSpace=wrap;html=1;" vertex="1" parent="AFOqg2G25fw3THZPZ8JP-5">
          <mxGeometry y="128" width="200" height="128" as="geometry" />
        </mxCell>
        <mxCell id="AFOqg2G25fw3THZPZ8JP-13" value="Coworker" style="swimlane;fontStyle=1;align=center;verticalAlign=top;childLayout=stackLayout;horizontal=1;startSize=26;horizontalStack=0;resizeParent=1;resizeParentMax=0;resizeLast=0;collapsible=1;marginBottom=0;whiteSpace=wrap;html=1;" vertex="1" parent="1">
          <mxGeometry x="300" y="940" width="160" height="114" as="geometry" />
        </mxCell>
        <mxCell id="AFOqg2G25fw3THZPZ8JP-14" value="initials: String&lt;div&gt;name: String&lt;/div&gt;" style="text;strokeColor=none;fillColor=none;align=left;verticalAlign=top;spacingLeft=4;spacingRight=4;overflow=hidden;rotatable=0;points=[[0,0.5],[1,0.5]];portConstraint=eastwest;whiteSpace=wrap;html=1;" vertex="1" parent="AFOqg2G25fw3THZPZ8JP-13">
          <mxGeometry y="26" width="160" height="54" as="geometry" />
        </mxCell>
        <mxCell id="AFOqg2G25fw3THZPZ8JP-15" value="" style="line;strokeWidth=1;fillColor=none;align=left;verticalAlign=middle;spacingTop=-1;spacingLeft=3;spacingRight=3;rotatable=0;labelPosition=right;points=[];portConstraint=eastwest;strokeColor=inherit;" vertex="1" parent="AFOqg2G25fw3THZPZ8JP-13">
          <mxGeometry y="80" width="160" height="8" as="geometry" />
        </mxCell>
        <mxCell id="AFOqg2G25fw3THZPZ8JP-16" value="setName()" style="text;strokeColor=none;fillColor=none;align=left;verticalAlign=top;spacingLeft=4;spacingRight=4;overflow=hidden;rotatable=0;points=[[0,0.5],[1,0.5]];portConstraint=eastwest;whiteSpace=wrap;html=1;" vertex="1" parent="AFOqg2G25fw3THZPZ8JP-13">
          <mxGeometry y="88" width="160" height="26" as="geometry" />
        </mxCell>
        <mxCell id="AFOqg2G25fw3THZPZ8JP-20" value="" style="endArrow=block;endFill=1;html=1;edgeStyle=orthogonalEdgeStyle;align=left;verticalAlign=top;rounded=0;entryX=0;entryY=0.5;entryDx=0;entryDy=0;exitX=0.5;exitY=0;exitDx=0;exitDy=0;" edge="1" parent="1" source="AFOqg2G25fw3THZPZ8JP-1" target="AFOqg2G25fw3THZPZ8JP-6">
          <mxGeometry x="-1" relative="1" as="geometry">
            <mxPoint x="228" y="575.5" as="sourcePoint" />
            <mxPoint x="334" y="294.5" as="targetPoint" />
          </mxGeometry>
        </mxCell>
        <mxCell id="AFOqg2G25fw3THZPZ8JP-25" value="&lt;font style=&quot;font-size: 21px;&quot;&gt;&lt;b style=&quot;&quot;&gt;*&lt;/b&gt;&lt;/font&gt;" style="text;html=1;align=center;verticalAlign=middle;resizable=0;points=[];autosize=1;strokeColor=none;fillColor=none;" vertex="1" parent="1">
          <mxGeometry x="320" y="340" width="30" height="40" as="geometry" />
        </mxCell>
        <mxCell id="AFOqg2G25fw3THZPZ8JP-28" value="" style="endArrow=block;endFill=1;html=1;edgeStyle=orthogonalEdgeStyle;align=left;verticalAlign=top;rounded=0;exitX=0.477;exitY=1.004;exitDx=0;exitDy=0;exitPerimeter=0;" edge="1" parent="1" source="AFOqg2G25fw3THZPZ8JP-4" target="AFOqg2G25fw3THZPZ8JP-14">
          <mxGeometry x="-1" relative="1" as="geometry">
            <mxPoint x="167" y="670" as="sourcePoint" />
            <mxPoint x="300" y="977" as="targetPoint" />
            <Array as="points">
              <mxPoint x="167" y="980" />
            </Array>
          </mxGeometry>
        </mxCell>
        <mxCell id="AFOqg2G25fw3THZPZ8JP-29" value="&lt;font style=&quot;font-size: 21px;&quot;&gt;&lt;b style=&quot;&quot;&gt;*&lt;/b&gt;&lt;/font&gt;" style="text;html=1;align=center;verticalAlign=middle;resizable=0;points=[];autosize=1;strokeColor=none;fillColor=none;" vertex="1" parent="1">
          <mxGeometry x="260" y="950" width="30" height="40" as="geometry" />
        </mxCell>
        <mxCell id="AFOqg2G25fw3THZPZ8JP-30" value="" style="endArrow=block;endFill=1;html=1;edgeStyle=orthogonalEdgeStyle;align=left;verticalAlign=top;rounded=0;exitX=1;exitY=0.5;exitDx=0;exitDy=0;entryX=0.5;entryY=0.014;entryDx=0;entryDy=0;entryPerimeter=0;" edge="1" parent="1" source="AFOqg2G25fw3THZPZ8JP-6" target="AFOqg2G25fw3THZPZ8JP-35">
          <mxGeometry x="-1" relative="1" as="geometry">
            <mxPoint x="184" y="552" as="sourcePoint" />
            <mxPoint x="690.1599999999999" y="546.608" as="targetPoint" />
            <Array as="points">
              <mxPoint x="690" y="373" />
            </Array>
          </mxGeometry>
        </mxCell>
        <mxCell id="AFOqg2G25fw3THZPZ8JP-31" value="&lt;font style=&quot;font-size: 21px;&quot;&gt;&lt;b style=&quot;&quot;&gt;*&lt;/b&gt;&lt;/font&gt;" style="text;html=1;align=center;verticalAlign=middle;resizable=0;points=[];autosize=1;strokeColor=none;fillColor=none;" vertex="1" parent="1">
          <mxGeometry x="690" y="570" width="30" height="40" as="geometry" />
        </mxCell>
        <mxCell id="AFOqg2G25fw3THZPZ8JP-32" value="" style="endArrow=block;endFill=1;html=1;edgeStyle=orthogonalEdgeStyle;align=left;verticalAlign=top;rounded=0;exitX=1;exitY=0.5;exitDx=0;exitDy=0;entryX=0.469;entryY=1.014;entryDx=0;entryDy=0;entryPerimeter=0;" edge="1" parent="1" target="AFOqg2G25fw3THZPZ8JP-38">
          <mxGeometry x="-1" relative="1" as="geometry">
            <mxPoint x="460" y="990" as="sourcePoint" />
            <mxPoint x="680" y="830" as="targetPoint" />
            <Array as="points">
              <mxPoint x="680" y="990" />
            </Array>
          </mxGeometry>
        </mxCell>
        <mxCell id="AFOqg2G25fw3THZPZ8JP-35" value="Activity" style="swimlane;fontStyle=1;align=center;verticalAlign=top;childLayout=stackLayout;horizontal=1;startSize=26;horizontalStack=0;resizeParent=1;resizeParentMax=0;resizeLast=0;collapsible=1;marginBottom=0;whiteSpace=wrap;html=1;" vertex="1" parent="1">
          <mxGeometry x="530" y="610" width="320" height="160" as="geometry" />
        </mxCell>
        <mxCell id="AFOqg2G25fw3THZPZ8JP-36" value="start: Date&lt;div&gt;end: Date&lt;/div&gt;&lt;div&gt;expectedHours: double&lt;/div&gt;&lt;div&gt;expectedWeeks: int&lt;/div&gt;&lt;div&gt;type: ActivityType&lt;/div&gt;" style="text;strokeColor=none;fillColor=none;align=left;verticalAlign=top;spacingLeft=4;spacingRight=4;overflow=hidden;rotatable=0;points=[[0,0.5],[1,0.5]];portConstraint=eastwest;whiteSpace=wrap;html=1;" vertex="1" parent="AFOqg2G25fw3THZPZ8JP-35">
          <mxGeometry y="26" width="320" height="84" as="geometry" />
        </mxCell>
        <mxCell id="AFOqg2G25fw3THZPZ8JP-37" value="" style="line;strokeWidth=1;fillColor=none;align=left;verticalAlign=middle;spacingTop=-1;spacingLeft=3;spacingRight=3;rotatable=0;labelPosition=right;points=[];portConstraint=eastwest;strokeColor=inherit;" vertex="1" parent="AFOqg2G25fw3THZPZ8JP-35">
          <mxGeometry y="110" width="320" height="8" as="geometry" />
        </mxCell>
        <mxCell id="AFOqg2G25fw3THZPZ8JP-38" value="getAssignedCoworkers: Coworker[*]" style="text;strokeColor=none;fillColor=none;align=left;verticalAlign=top;spacingLeft=4;spacingRight=4;overflow=hidden;rotatable=0;points=[[0,0.5],[1,0.5]];portConstraint=eastwest;whiteSpace=wrap;html=1;" vertex="1" parent="AFOqg2G25fw3THZPZ8JP-35">
          <mxGeometry y="118" width="320" height="42" as="geometry" />
        </mxCell>
        <mxCell id="AFOqg2G25fw3THZPZ8JP-40" value="&lt;font style=&quot;font-size: 21px;&quot;&gt;&lt;b style=&quot;&quot;&gt;*&lt;/b&gt;&lt;/font&gt;" style="text;html=1;align=center;verticalAlign=middle;resizable=0;points=[];autosize=1;strokeColor=none;fillColor=none;" vertex="1" parent="1">
          <mxGeometry x="675" y="780" width="30" height="40" as="geometry" />
        </mxCell>
        <mxCell id="AFOqg2G25fw3THZPZ8JP-41" value="&lt;p style=&quot;margin:0px;margin-top:4px;text-align:center;&quot;&gt;&lt;i&gt;&amp;lt;&amp;lt;Enum&amp;gt;&amp;gt;&lt;/i&gt;&lt;br&gt;&lt;b&gt;ActivityType&lt;/b&gt;&lt;/p&gt;&lt;hr size=&quot;1&quot; style=&quot;border-style:solid;&quot;&gt;&lt;p style=&quot;margin:0px;margin-left:4px;&quot;&gt;&lt;/p&gt;&lt;div style=&quot;text-align: center;&quot;&gt;&lt;span style=&quot;background-color: transparent; color: light-dark(rgb(0, 0, 0), rgb(255, 255, 255));&quot;&gt;CLIENT&lt;/span&gt;&lt;/div&gt;&lt;div style=&quot;text-align: center;&quot;&gt;&lt;span style=&quot;background-color: transparent; color: light-dark(rgb(0, 0, 0), rgb(255, 255, 255));&quot;&gt;INTERN&lt;/span&gt;&lt;/div&gt;&lt;p&gt;&lt;/p&gt;" style="verticalAlign=top;align=left;overflow=fill;html=1;whiteSpace=wrap;" vertex="1" parent="1">
          <mxGeometry x="940" y="650" width="190" height="75" as="geometry" />
        </mxCell>
        <mxCell id="AFOqg2G25fw3THZPZ8JP-43" value="" style="endArrow=none;dashed=1;endFill=0;endSize=12;html=1;rounded=0;exitX=0;exitY=0.5;exitDx=0;exitDy=0;entryX=0.997;entryY=0.668;entryDx=0;entryDy=0;entryPerimeter=0;startFill=0;startArrow=block;" edge="1" parent="1" source="AFOqg2G25fw3THZPZ8JP-41" target="AFOqg2G25fw3THZPZ8JP-36">
          <mxGeometry width="160" relative="1" as="geometry">
            <mxPoint x="460" y="650" as="sourcePoint" />
            <mxPoint x="620" y="650" as="targetPoint" />
            <Array as="points">
              <mxPoint x="900" y="690" />
            </Array>
          </mxGeometry>
        </mxCell>
      </root>
    </mxGraphModel>
  </diagram>
</mxfile>
